<mxfile host="Electron" modified="2022-09-24T11:33:25.658Z" agent="5.0 (Macintosh; Intel Mac OS X 10_15_7) AppleWebKit/537.36 (KHTML, like Gecko) draw.io/20.2.3 Chrome/102.0.5005.167 Electron/19.0.11 Safari/537.36" etag="zrOvehh4izLTMGDayDOk" compressed="false" version="20.2.3" type="device">
  <diagram id="zHJoLA6md0Yeo67uzJwa" name="第1頁">
    <mxGraphModel dx="850" dy="559" grid="1" gridSize="5" guides="0" tooltips="1" connect="1" arrows="1" fold="1" page="1" pageScale="1" pageWidth="1169" pageHeight="827" math="0" shadow="0">
      <root>
        <mxCell id="0" />
        <mxCell id="1" parent="0" />
        <mxCell id="m3pfPtTyuK7HYTcpv6uo-1" style="edgeStyle=orthogonalEdgeStyle;rounded=1;sketch=0;orthogonalLoop=1;jettySize=auto;html=1;fontFamily=Courier New;fontSize=12;strokeWidth=2;entryX=0.5;entryY=0;entryDx=0;entryDy=0;entryPerimeter=0;exitX=0.5;exitY=1;exitDx=0;exitDy=0;" parent="1" source="m3pfPtTyuK7HYTcpv6uo-2" target="m3pfPtTyuK7HYTcpv6uo-4" edge="1">
          <mxGeometry relative="1" as="geometry">
            <mxPoint x="330" y="20" as="sourcePoint" />
            <mxPoint x="330" y="80" as="targetPoint" />
          </mxGeometry>
        </mxCell>
        <object label="" type="ENTRY_POINT" id="m3pfPtTyuK7HYTcpv6uo-2">
          <mxCell style="ellipse;fontStyle=0;fontSize=12;sketch=0;rounded=1;align=left;fontFamily=Iosevka Fixed;strokeWidth=2;shadow=0;html=0;" parent="1" vertex="1">
            <mxGeometry x="310" y="80" width="40" height="40" as="geometry" />
          </mxCell>
        </object>
        <mxCell id="m3pfPtTyuK7HYTcpv6uo-3" style="edgeStyle=orthogonalEdgeStyle;rounded=1;sketch=0;orthogonalLoop=1;jettySize=auto;html=1;fontFamily=Courier New;fontSize=12;strokeWidth=2;entryX=0.5;entryY=0;entryDx=0;entryDy=0;exitX=0.5;exitY=1;exitDx=0;exitDy=0;" parent="1" source="m3pfPtTyuK7HYTcpv6uo-4" target="m3pfPtTyuK7HYTcpv6uo-8" edge="1">
          <mxGeometry relative="1" as="geometry">
            <mxPoint x="330" y="160" as="sourcePoint" />
            <mxPoint x="330" y="200" as="targetPoint" />
          </mxGeometry>
        </mxCell>
        <object label="var big = 0;&#xa;var sum = 0;&#xa;var numbers = [45,20,39];&#xa;var i = 0;" type="PROCESS" id="m3pfPtTyuK7HYTcpv6uo-4">
          <mxCell style="fontSize=12;fontStyle=0;sketch=0;rounded=0;fontFamily=Iosevka Fixed;align=left;strokeWidth=2;arcSize=7;shadow=0;html=0;spacingLeft=5;verticalAlign=top;spacingTop=0;spacing=5;" parent="1" vertex="1">
            <mxGeometry x="240" y="160" width="180" height="80" as="geometry" />
          </mxCell>
        </object>
        <mxCell id="m3pfPtTyuK7HYTcpv6uo-7" style="edgeStyle=orthogonalEdgeStyle;rounded=1;sketch=0;orthogonalLoop=1;jettySize=auto;html=1;entryX=0.5;entryY=0;entryDx=0;entryDy=0;fontFamily=Courier New;fontSize=12;strokeWidth=2;entryPerimeter=0;exitX=0.5;exitY=1;exitDx=0;exitDy=0;" parent="1" source="m3pfPtTyuK7HYTcpv6uo-8" target="m3pfPtTyuK7HYTcpv6uo-13" edge="1">
          <mxGeometry relative="1" as="geometry">
            <mxPoint x="400" y="440" as="targetPoint" />
          </mxGeometry>
        </mxCell>
        <object label="sum = sum + numbers[i];" type="PROCESS" id="m3pfPtTyuK7HYTcpv6uo-8">
          <mxCell style="fontSize=12;fontStyle=0;sketch=0;rounded=0;fontFamily=Iosevka Fixed;align=center;strokeWidth=2;arcSize=7;shadow=0;html=0;spacingLeft=5;verticalAlign=middle;spacingTop=0;spacing=5;" parent="1" vertex="1">
            <mxGeometry x="240" y="280" width="180" height="40" as="geometry" />
          </mxCell>
        </object>
        <mxCell id="m3pfPtTyuK7HYTcpv6uo-9" value="" style="edgeStyle=orthogonalEdgeStyle;rounded=1;sketch=0;orthogonalLoop=1;jettySize=auto;fontFamily=Iosevka Fixed;fontSize=12;strokeWidth=2;entryX=0;entryY=0.5;entryDx=0;entryDy=0;exitX=1;exitY=0.5;exitDx=0;exitDy=0;exitPerimeter=0;" parent="1" source="m3pfPtTyuK7HYTcpv6uo-13" target="m3pfPtTyuK7HYTcpv6uo-15" edge="1">
          <mxGeometry relative="1" as="geometry" />
        </mxCell>
        <mxCell id="m3pfPtTyuK7HYTcpv6uo-10" value="true" style="edgeLabel;align=center;verticalAlign=middle;resizable=0;points=[];fontSize=12;fontFamily=Iosevka Fixed;labelBackgroundColor=none;" parent="m3pfPtTyuK7HYTcpv6uo-9" vertex="1" connectable="0">
          <mxGeometry x="-0.1017" y="-2" relative="1" as="geometry">
            <mxPoint x="-5" y="-17" as="offset" />
          </mxGeometry>
        </mxCell>
        <mxCell id="9tKmZWZSuBjkQiG2i-St-6" style="edgeStyle=orthogonalEdgeStyle;rounded=1;sketch=0;orthogonalLoop=1;jettySize=auto;html=0;entryX=0.5;entryY=0;entryDx=0;entryDy=0;fontFamily=Iosevka Fixed;fontSize=12;strokeWidth=2;exitX=0.5;exitY=1;exitDx=0;exitDy=0;exitPerimeter=0;" parent="1" source="m3pfPtTyuK7HYTcpv6uo-13" target="m3pfPtTyuK7HYTcpv6uo-17" edge="1">
          <mxGeometry relative="1" as="geometry" />
        </mxCell>
        <mxCell id="9tKmZWZSuBjkQiG2i-St-7" value="false" style="edgeLabel;html=1;align=center;verticalAlign=middle;resizable=0;points=[];fontSize=12;fontFamily=Iosevka Fixed;labelBackgroundColor=none;" parent="9tKmZWZSuBjkQiG2i-St-6" vertex="1" connectable="0">
          <mxGeometry x="-0.2375" y="-2" relative="1" as="geometry">
            <mxPoint x="27" as="offset" />
          </mxGeometry>
        </mxCell>
        <object label="numbers[i] &amp;gt; big" type="DECISION" id="m3pfPtTyuK7HYTcpv6uo-13">
          <mxCell style="strokeWidth=2;html=1;shape=mxgraph.flowchart.decision;whiteSpace=wrap;rounded=0;shadow=0;fontFamily=Iosevka Fixed;fontSize=12;" parent="1" vertex="1">
            <mxGeometry x="240" y="360" width="180" height="80" as="geometry" />
          </mxCell>
        </object>
        <mxCell id="m3pfPtTyuK7HYTcpv6uo-14" style="edgeStyle=orthogonalEdgeStyle;rounded=1;sketch=0;orthogonalLoop=1;jettySize=auto;html=1;entryX=1;entryY=0.5;entryDx=0;entryDy=0;fontFamily=Iosevka Fixed;fontSize=12;strokeWidth=2;exitX=0.5;exitY=1;exitDx=0;exitDy=0;" parent="1" source="m3pfPtTyuK7HYTcpv6uo-15" target="m3pfPtTyuK7HYTcpv6uo-17" edge="1">
          <mxGeometry relative="1" as="geometry" />
        </mxCell>
        <object label="big = numbers[i];" type="PROCESS" id="m3pfPtTyuK7HYTcpv6uo-15">
          <mxCell style="fontSize=12;fontStyle=0;sketch=0;rounded=0;fontFamily=Iosevka Fixed;align=center;strokeWidth=2;arcSize=7;shadow=0;html=0;spacingLeft=5;verticalAlign=middle;spacingTop=0;spacing=5;" parent="1" vertex="1">
            <mxGeometry x="500" y="380" width="180" height="40" as="geometry" />
          </mxCell>
        </object>
        <mxCell id="m3pfPtTyuK7HYTcpv6uo-16" style="edgeStyle=orthogonalEdgeStyle;rounded=1;sketch=0;orthogonalLoop=1;jettySize=auto;html=1;entryX=0.5;entryY=0;entryDx=0;entryDy=0;entryPerimeter=0;fontFamily=Iosevka Fixed;fontSize=12;strokeWidth=2;exitX=0.5;exitY=1;exitDx=0;exitDy=0;" parent="1" source="m3pfPtTyuK7HYTcpv6uo-17" target="m3pfPtTyuK7HYTcpv6uo-21" edge="1">
          <mxGeometry relative="1" as="geometry" />
        </mxCell>
        <object label="i++;" type="PROCESS" id="m3pfPtTyuK7HYTcpv6uo-17">
          <mxCell style="fontSize=12;fontStyle=0;sketch=0;rounded=0;fontFamily=Iosevka Fixed;align=center;strokeWidth=2;arcSize=7;shadow=0;html=0;spacingLeft=5;verticalAlign=middle;spacingTop=0;spacing=5;" parent="1" vertex="1">
            <mxGeometry x="240" y="480" width="180" height="40" as="geometry" />
          </mxCell>
        </object>
        <mxCell id="m3pfPtTyuK7HYTcpv6uo-20" style="edgeStyle=orthogonalEdgeStyle;rounded=1;sketch=0;orthogonalLoop=1;jettySize=auto;html=1;entryX=0.5;entryY=0;entryDx=0;entryDy=0;fontFamily=Iosevka Fixed;fontSize=12;strokeWidth=2;exitX=0.5;exitY=1;exitDx=0;exitDy=0;exitPerimeter=0;" parent="1" source="m3pfPtTyuK7HYTcpv6uo-21" target="m3pfPtTyuK7HYTcpv6uo-24" edge="1">
          <mxGeometry relative="1" as="geometry" />
        </mxCell>
        <mxCell id="9tKmZWZSuBjkQiG2i-St-9" value="true" style="edgeLabel;html=1;align=center;verticalAlign=middle;resizable=0;points=[];fontSize=12;fontFamily=Iosevka Fixed;labelBackgroundColor=none;" parent="m3pfPtTyuK7HYTcpv6uo-20" vertex="1" connectable="0">
          <mxGeometry x="-0.481" y="-2" relative="1" as="geometry">
            <mxPoint x="27" y="5" as="offset" />
          </mxGeometry>
        </mxCell>
        <mxCell id="9tKmZWZSuBjkQiG2i-St-4" style="edgeStyle=orthogonalEdgeStyle;rounded=1;sketch=0;orthogonalLoop=1;jettySize=auto;html=0;entryX=0;entryY=0.5;entryDx=0;entryDy=0;fontFamily=Iosevka Fixed;fontSize=12;strokeWidth=2;" parent="1" source="m3pfPtTyuK7HYTcpv6uo-21" target="m3pfPtTyuK7HYTcpv6uo-8" edge="1">
          <mxGeometry relative="1" as="geometry">
            <Array as="points">
              <mxPoint x="200" y="600" />
              <mxPoint x="200" y="300" />
            </Array>
          </mxGeometry>
        </mxCell>
        <mxCell id="9tKmZWZSuBjkQiG2i-St-5" value="false" style="edgeLabel;html=1;align=center;verticalAlign=middle;resizable=0;points=[];fontSize=12;fontFamily=Iosevka Fixed;labelBackgroundColor=none;" parent="9tKmZWZSuBjkQiG2i-St-4" vertex="1" connectable="0">
          <mxGeometry x="-0.2243" y="-1" relative="1" as="geometry">
            <mxPoint x="-31" y="-54" as="offset" />
          </mxGeometry>
        </mxCell>
        <object label="i &amp;gt;= numbers.length" type="DECISION" id="m3pfPtTyuK7HYTcpv6uo-21">
          <mxCell style="strokeWidth=2;html=1;shape=mxgraph.flowchart.decision;whiteSpace=wrap;rounded=0;shadow=0;fontFamily=Iosevka Fixed;fontSize=12;" parent="1" vertex="1">
            <mxGeometry x="240" y="560" width="180" height="80" as="geometry" />
          </mxCell>
        </object>
        <object label="" type="EXIT_POINT" id="m3pfPtTyuK7HYTcpv6uo-22">
          <mxCell style="shape=sumEllipse;perimeter=ellipsePerimeter;backgroundOutline=1;fontStyle=0;fontSize=16;sketch=0;rounded=1;fontFamily=Iosevka Fixed;align=left;strokeWidth=2;shadow=0;html=0;" parent="1" vertex="1">
            <mxGeometry x="310" y="760" width="40" height="40" as="geometry" />
          </mxCell>
        </object>
        <mxCell id="9tKmZWZSuBjkQiG2i-St-8" style="edgeStyle=orthogonalEdgeStyle;rounded=1;sketch=0;orthogonalLoop=1;jettySize=auto;html=0;entryX=0.5;entryY=0;entryDx=0;entryDy=0;fontFamily=Iosevka Fixed;fontSize=12;strokeWidth=2;exitX=0.5;exitY=1;exitDx=0;exitDy=0;" parent="1" source="m3pfPtTyuK7HYTcpv6uo-24" target="m3pfPtTyuK7HYTcpv6uo-22" edge="1">
          <mxGeometry relative="1" as="geometry" />
        </mxCell>
        <object label="print(&#39;big = &#39; + big)&#xa;print(&#39;sum = &#39; + sum)" type="PROCESS" id="m3pfPtTyuK7HYTcpv6uo-24">
          <mxCell style="fontSize=12;fontStyle=0;sketch=0;rounded=0;fontFamily=Iosevka Fixed;align=left;strokeWidth=2;arcSize=7;shadow=0;html=0;spacingLeft=5;spacing=5;" parent="1" vertex="1">
            <mxGeometry x="240" y="680" width="180" height="40" as="geometry" />
          </mxCell>
        </object>
        <mxCell id="UbTHWvcrtNXVTwTKfJbN-1" value="尋找陣列中最大的數字並計算所有數字的總和。" style="text;html=1;strokeColor=default;fillColor=none;align=left;verticalAlign=middle;whiteSpace=wrap;rounded=0;spacingLeft=5;strokeWidth=1;fontSize=14;movable=1;resizable=1;rotatable=1;deletable=1;editable=1;connectable=1;" parent="1" vertex="1">
          <mxGeometry x="140" y="20" width="580" height="40" as="geometry" />
        </mxCell>
        <mxCell id="UbTHWvcrtNXVTwTKfJbN-2" value="範例 1" style="rounded=0;whiteSpace=wrap;html=1;fillColor=#000000;fontColor=#FFFFFF;fontSize=18;fontStyle=1;strokeWidth=1;movable=1;resizable=1;rotatable=1;deletable=1;editable=1;connectable=1;" parent="1" vertex="1">
          <mxGeometry x="40" y="20" width="100" height="40" as="geometry" />
        </mxCell>
      </root>
    </mxGraphModel>
  </diagram>
</mxfile>
